<svg xmlns="http://www.w3.org/2000/svg">
    <defs>
        <g id="logo">
            <path id="mountain"
                d="M44.643,32.534l-20.25-31.5a2.25,2.25,0,0,0-3.786,0L.357,32.534A2.25,2.25,0,0,0,2.25,36h40.5a2.25,2.25,0,0,0,1.893-3.466ZM22.5,6.411l6,9.339h-6L18,20.25l-2.676-2.676Z" />
            <path id="tint" transform="translate(12.439 3.911)" fill="#fff"
                d="M11.66,1.294a1.712,1.712,0,0,0-3.32,0C5.682,10.538,0,13.05,0,19.565A10.218,10.218,0,0,0,10,30,10.218,10.218,0,0,0,20,19.565c0-6.548-5.67-8.985-8.34-18.271ZM10,26.25a6.473,6.473,0,0,1-6.364-6.562.91.91,0,1,1,1.818,0A4.624,4.624,0,0,0,10,24.375a.938.938,0,0,1,0,1.875Z" />
        </g>
        <g id="chevron-up">
            <path d="M0 0h24v24H0z" fill="none" />
            <path d="M12 8l-6 6 1.41 1.41L12 10.83l4.59 4.58L18 14z" />
        </g>
        <g id="bars">
            <path d="M0 0h24v24H0z" fill="none" />
            <path d="M3 18h18v-2H3v2zm0-5h18v-2H3v2zm0-7v2h18V6H3z" />
        </g>
        <g id="times">
            <path d="M0 0h24v24H0z" fill="none" />
            <path
                d="M19 6.41L17.59 5 12 10.59 6.41 5 5 6.41 10.59 12 5 17.59 6.41 19 12 13.41 17.59 19 19 17.59 13.41 12z" />
        </g>
        <g id="calendar">
            <path d="M0 0h24v24H0z" fill="none" />
            <path
                d="M20 3h-1V1h-2v2H7V1H5v2H4c-1.1 0-2 .9-2 2v16c0 1.1.9 2 2 2h16c1.1 0 2-.9 2-2V5c0-1.1-.9-2-2-2zm0 18H4V8h16v13z" />
        </g>
        <g id="marker">
            <path
                d="M12 2C8.13 2 5 5.13 5 9c0 5.25 7 13 7 13s7-7.75 7-13c0-3.87-3.13-7-7-7zm0 9.5c-1.38 0-2.5-1.12-2.5-2.5s1.12-2.5 2.5-2.5 2.5 1.12 2.5 2.5-1.12 2.5-2.5 2.5z" />
            <path d="M0 0h24v24H0z" fill="none" />
        </g>
        <g id="dark">
            <path d="M0 0h24v24H0z" fill="none" />
            <path
                d="M20 8.69V4h-4.69L12 .69 8.69 4H4v4.69L.69 12 4 15.31V20h4.69L12 23.31 15.31 20H20v-4.69L23.31 12 20 8.69zM12 18c-.89 0-1.74-.2-2.5-.55C11.56 16.5 13 14.42 13 12s-1.44-4.5-3.5-5.45C10.26 6.2 11.11 6 12 6c3.31 0 6 2.69 6 6s-2.69 6-6 6z" />
        </g>
        <g id="light">
            <path d="M0 0h24v24H0z" fill="none" />
            <path
                d="M20 15.31L23.31 12 20 8.69V4h-4.69L12 .69 8.69 4H4v4.69L.69 12 4 15.31V20h4.69L12 23.31 15.31 20H20v-4.69zM12 18c-3.31 0-6-2.69-6-6s2.69-6 6-6 6 2.69 6 6-2.69 6-6 6z" />
        </g>
        <g id="experience">
            <path fill="currentColor"
                d="M320 336c0 8.84-7.16 16-16 16h-96c-8.84 0-16-7.16-16-16v-48H0v144c0 25.6 22.4 48 48 48h416c25.6 0 48-22.4 48-48V288H320v48zm144-208h-80V80c0-25.6-22.4-48-48-48H176c-25.6 0-48 22.4-48 48v48H48c-25.6 0-48 22.4-48 48v80h512v-80c0-25.6-22.4-48-48-48zm-144 0H192V96h128v32z">
            </path>
        </g>
        <g id="education">
            <path fill="currentColor"
                d="M622.34 153.2L343.4 67.5c-15.2-4.67-31.6-4.67-46.79 0L17.66 153.2c-23.54 7.23-23.54 38.36 0 45.59l48.63 14.94c-10.67 13.19-17.23 29.28-17.88 46.9C38.78 266.15 32 276.11 32 288c0 10.78 5.68 19.85 13.86 25.65L20.33 428.53C18.11 438.52 25.71 448 35.94 448h56.11c10.24 0 17.84-9.48 15.62-19.47L82.14 313.65C90.32 307.85 96 298.78 96 288c0-11.57-6.47-21.25-15.66-26.87.76-15.02 8.44-28.3 20.69-36.72L296.6 284.5c9.06 2.78 26.44 6.25 46.79 0l278.95-85.7c23.55-7.24 23.55-38.36 0-45.6zM352.79 315.09c-28.53 8.76-52.84 3.92-65.59 0l-145.02-44.55L128 384c0 35.35 85.96 64 192 64s192-28.65 192-64l-14.18-113.47-145.03 44.56z">
            </path>
        </g>
    </defs>
</svg>