<svg width="243" height="632" viewBox="0 0 243 632" fill="none" xmlns="http://www.w3.org/2000/svg">
<circle cx="50" cy="181" r="50" fill="#C4C4C4"/>
<circle cx="87" cy="557" r="75" fill="#C4C4C4"/>
<circle cx="193" cy="373" r="50" fill="#C4C4C4"/>
<circle cx="193" cy="181" r="50" fill="#C4C4C4"/>
<path d="M48.2322 107.768C49.2085 108.744 50.7915 108.744 51.7678 107.768L67.6777 91.8579C68.654 90.8816 68.654 89.2986 67.6777 88.3223C66.7014 87.346 65.1184 87.346 64.1421 88.3223L50 102.464L35.8579 88.3223C34.8816 87.346 33.2986 87.346 32.3223 88.3223C31.346 89.2986 31.346 90.8816 32.3223 91.8579L48.2322 107.768ZM47.5 56L47.5 106L52.5 106L52.5 56L47.5 56Z" fill="black"/>
<path d="M48.2322 462.768C49.2085 463.744 50.7914 463.744 51.7678 462.768L67.6777 446.858C68.654 445.882 68.654 444.299 67.6777 443.322C66.7014 442.346 65.1184 442.346 64.1421 443.322L50 457.464L35.8579 443.322C34.8815 442.346 33.2986 442.346 32.3223 443.322C31.346 444.299 31.346 445.882 32.3223 446.858L48.2322 462.768ZM47.5 261L47.5 461L52.5 461L52.5 261L47.5 261Z" fill="black"/>
<path d="M191.232 107.768C192.209 108.744 193.791 108.744 194.768 107.768L210.678 91.8579C211.654 90.8816 211.654 89.2986 210.678 88.3223C209.701 87.346 208.118 87.346 207.142 88.3223L193 102.464L178.858 88.3223C177.882 87.346 176.299 87.346 175.322 88.3223C174.346 89.2986 174.346 90.8816 175.322 91.8579L191.232 107.768ZM190.5 56L190.5 106L195.5 106L195.5 56L190.5 56Z" fill="black"/>
<path d="M190.232 298.768C191.209 299.744 192.791 299.744 193.768 298.768L209.678 282.858C210.654 281.882 210.654 280.299 209.678 279.322C208.701 278.346 207.118 278.346 206.142 279.322L192 293.464L177.858 279.322C176.882 278.346 175.299 278.346 174.322 279.322C173.346 280.299 173.346 281.882 174.322 282.858L190.232 298.768ZM189.5 247L189.5 297L194.5 297L194.5 247L189.5 247Z" fill="black"/>
<path d="M148.763 484.19C149.235 485.488 150.67 486.157 151.967 485.685L173.11 477.989C174.408 477.517 175.077 476.082 174.605 474.785C174.132 473.487 172.698 472.818 171.4 473.291L152.606 480.131L145.766 461.337C145.294 460.04 143.859 459.371 142.562 459.843C141.264 460.315 140.595 461.75 141.068 463.047L148.763 484.19ZM169.977 436.963L148.846 482.279L153.378 484.392L174.509 439.077L169.977 436.963Z" fill="black"/>
<path d="M20.9941 33H17.7422V13.9805H20.9941V33ZM17.4785 8.93555C17.4785 8.4082 17.6367 7.96289 17.9531 7.59961C18.2812 7.23633 18.7617 7.05469 19.3945 7.05469C20.0273 7.05469 20.5078 7.23633 20.8359 7.59961C21.1641 7.96289 21.3281 8.4082 21.3281 8.93555C21.3281 9.46289 21.1641 9.90234 20.8359 10.2539C20.5078 10.6055 20.0273 10.7812 19.3945 10.7812C18.7617 10.7812 18.2812 10.6055 17.9531 10.2539C17.6367 9.90234 17.4785 9.46289 17.4785 8.93555ZM29.291 13.9805L29.3965 16.3711C30.8496 14.543 32.748 13.6289 35.0918 13.6289C39.1113 13.6289 41.1387 15.8965 41.1738 20.4316V33H37.9219V20.4141C37.9102 19.043 37.5938 18.0293 36.9727 17.373C36.3633 16.7168 35.4082 16.3887 34.1074 16.3887C33.0527 16.3887 32.127 16.6699 31.3301 17.2324C30.5332 17.7949 29.9121 18.5332 29.4668 19.4473V33H26.2148V13.9805H29.291ZM60.9492 18.6914H46.2891V15.8613H60.9492V18.6914ZM60.9492 25.9863H46.2891V23.1738H60.9492V25.9863ZM70.2305 18.6211H72.6738C74.209 18.5977 75.416 18.1934 76.2949 17.4082C77.1738 16.623 77.6133 15.5625 77.6133 14.2266C77.6133 11.2266 76.1191 9.72656 73.1309 9.72656C71.7246 9.72656 70.5996 10.1309 69.7559 10.9395C68.9238 11.7363 68.5078 12.7969 68.5078 14.1211H65.2559C65.2559 12.0938 65.9941 10.4121 67.4707 9.07617C68.959 7.72852 70.8457 7.05469 73.1309 7.05469C75.5449 7.05469 77.4375 7.69336 78.8086 8.9707C80.1797 10.248 80.8652 12.0234 80.8652 14.2969C80.8652 15.4102 80.502 16.4883 79.7754 17.5312C79.0605 18.5742 78.082 19.3535 76.8398 19.8691C78.2461 20.3145 79.3301 21.0527 80.0918 22.084C80.8652 23.1152 81.252 24.375 81.252 25.8633C81.252 28.1602 80.502 29.9824 79.002 31.3301C77.502 32.6777 75.5508 33.3516 73.1484 33.3516C70.7461 33.3516 68.7891 32.7012 67.2773 31.4004C65.7773 30.0996 65.0273 28.3828 65.0273 26.25H68.2969C68.2969 27.5977 68.7363 28.6758 69.6152 29.4844C70.4941 30.293 71.6719 30.6973 73.1484 30.6973C74.7188 30.6973 75.9199 30.2871 76.752 29.4668C77.584 28.6465 78 27.4688 78 25.9336C78 24.4453 77.543 23.3027 76.6289 22.5059C75.7148 21.709 74.3965 21.2988 72.6738 21.2754H70.2305V18.6211Z" fill="black"/>
<path d="M40.3574 175.646H34.3457V186H30.9531V160.406H39.4258C42.3086 160.406 44.5234 161.062 46.0703 162.375C47.6289 163.688 48.4082 165.598 48.4082 168.105C48.4082 169.699 47.9746 171.088 47.1074 172.271C46.252 173.455 45.0566 174.34 43.5215 174.926L49.5332 185.789V186H45.9121L40.3574 175.646ZM34.3457 172.887H39.5312C41.207 172.887 42.5371 172.453 43.5215 171.586C44.5176 170.719 45.0156 169.559 45.0156 168.105C45.0156 166.523 44.541 165.311 43.5918 164.467C42.6543 163.623 41.2949 163.195 39.5137 163.184H34.3457V172.887ZM62.998 186H59.7285V164.326L53.1719 166.734V163.781L62.4883 160.283H62.998V186Z" fill="black"/>
<path d="M183.357 175.646H177.346V186H173.953V160.406H182.426C185.309 160.406 187.523 161.062 189.07 162.375C190.629 163.688 191.408 165.598 191.408 168.105C191.408 169.699 190.975 171.088 190.107 172.271C189.252 173.455 188.057 174.34 186.521 174.926L192.533 185.789V186H188.912L183.357 175.646ZM177.346 172.887H182.531C184.207 172.887 185.537 172.453 186.521 171.586C187.518 170.719 188.016 169.559 188.016 168.105C188.016 166.523 187.541 165.311 186.592 164.467C185.654 163.623 184.295 163.195 182.514 163.184H177.346V172.887ZM212.08 186H195.311V183.662L204.17 173.818C205.482 172.33 206.385 171.123 206.877 170.197C207.381 169.26 207.633 168.293 207.633 167.297C207.633 165.961 207.229 164.865 206.42 164.01C205.611 163.154 204.533 162.727 203.186 162.727C201.568 162.727 200.309 163.189 199.406 164.115C198.516 165.029 198.07 166.307 198.07 167.947H194.818C194.818 165.592 195.574 163.688 197.086 162.234C198.609 160.781 200.643 160.055 203.186 160.055C205.564 160.055 207.445 160.682 208.828 161.936C210.211 163.178 210.902 164.836 210.902 166.91C210.902 169.43 209.297 172.43 206.086 175.91L199.23 183.346H212.08V186Z" fill="black"/>
<path d="M163.994 33H160.742V13.9805H163.994V33ZM160.479 8.93555C160.479 8.4082 160.637 7.96289 160.953 7.59961C161.281 7.23633 161.762 7.05469 162.395 7.05469C163.027 7.05469 163.508 7.23633 163.836 7.59961C164.164 7.96289 164.328 8.4082 164.328 8.93555C164.328 9.46289 164.164 9.90234 163.836 10.2539C163.508 10.6055 163.027 10.7812 162.395 10.7812C161.762 10.7812 161.281 10.6055 160.953 10.2539C160.637 9.90234 160.479 9.46289 160.479 8.93555ZM172.291 13.9805L172.396 16.3711C173.85 14.543 175.748 13.6289 178.092 13.6289C182.111 13.6289 184.139 15.8965 184.174 20.4316V33H180.922V20.4141C180.91 19.043 180.594 18.0293 179.973 17.373C179.363 16.7168 178.408 16.3887 177.107 16.3887C176.053 16.3887 175.127 16.6699 174.33 17.2324C173.533 17.7949 172.912 18.5332 172.467 19.4473V33H169.215V13.9805H172.291ZM203.949 18.6914H189.289V15.8613H203.949V18.6914ZM203.949 25.9863H189.289V23.1738H203.949V25.9863ZM222.23 24.4043H225.781V27.0586H222.23V33H218.961V27.0586H207.307V25.1426L218.768 7.40625H222.23V24.4043ZM210.998 24.4043H218.961V11.8535L218.574 12.5566L210.998 24.4043Z" fill="black"/>
<path d="M37.7676 209.478C37.7676 209.038 37.6006 208.698 37.2666 208.458C36.9385 208.212 36.3613 208.001 35.5352 207.825C34.7148 207.649 34.0615 207.438 33.5752 207.192C33.0947 206.946 32.7373 206.653 32.5029 206.313C32.2744 205.974 32.1602 205.569 32.1602 205.101C32.1602 204.321 32.4883 203.662 33.1445 203.123C33.8066 202.584 34.6504 202.314 35.6758 202.314C36.7539 202.314 37.627 202.593 38.2949 203.149C38.9688 203.706 39.3057 204.418 39.3057 205.285H37.6709C37.6709 204.84 37.4805 204.456 37.0996 204.134C36.7246 203.812 36.25 203.65 35.6758 203.65C35.084 203.65 34.6211 203.779 34.2871 204.037C33.9531 204.295 33.7861 204.632 33.7861 205.048C33.7861 205.44 33.9414 205.736 34.252 205.936C34.5625 206.135 35.1221 206.325 35.9307 206.507C36.7451 206.688 37.4043 206.905 37.9082 207.157C38.4121 207.409 38.7842 207.714 39.0244 208.071C39.2705 208.423 39.3936 208.854 39.3936 209.363C39.3936 210.213 39.0537 210.896 38.374 211.411C37.6943 211.921 36.8125 212.176 35.7285 212.176C34.9668 212.176 34.293 212.041 33.707 211.771C33.1211 211.502 32.6611 211.127 32.3271 210.646C31.999 210.16 31.835 209.636 31.835 209.073H33.4609C33.4902 209.618 33.707 210.052 34.1113 210.374C34.5215 210.69 35.0605 210.849 35.7285 210.849C36.3438 210.849 36.8359 210.726 37.2051 210.479C37.5801 210.228 37.7676 209.894 37.7676 209.478ZM48.9473 204.846H41.6172V203.431H48.9473V204.846ZM48.9473 208.493H41.6172V207.087H48.9473V208.493ZM56.5674 212H54.9326V201.163L51.6543 202.367V200.891L56.3125 199.142H56.5674V212ZM69.3555 206.542C69.3555 208.446 69.0303 209.861 68.3799 210.787C67.7295 211.713 66.7129 212.176 65.3301 212.176C63.9648 212.176 62.9541 211.725 62.2979 210.822C61.6416 209.914 61.3018 208.561 61.2783 206.762V204.591C61.2783 202.71 61.6035 201.312 62.2539 200.398C62.9043 199.484 63.9238 199.027 65.3125 199.027C66.6895 199.027 67.7031 199.47 68.3535 200.354C69.0039 201.233 69.3379 202.593 69.3555 204.433V206.542ZM67.7295 204.318C67.7295 202.941 67.5361 201.939 67.1494 201.312C66.7627 200.68 66.1504 200.363 65.3125 200.363C64.4805 200.363 63.874 200.677 63.4932 201.304C63.1123 201.931 62.916 202.895 62.9043 204.195V206.797C62.9043 208.18 63.1035 209.202 63.502 209.864C63.9062 210.521 64.5156 210.849 65.3301 210.849C66.1328 210.849 66.7275 210.538 67.1143 209.917C67.5068 209.296 67.7119 208.317 67.7295 206.981V204.318Z" fill="black"/>
<path d="M181.768 205.478C181.768 205.038 181.601 204.698 181.267 204.458C180.938 204.212 180.361 204.001 179.535 203.825C178.715 203.649 178.062 203.438 177.575 203.192C177.095 202.946 176.737 202.653 176.503 202.313C176.274 201.974 176.16 201.569 176.16 201.101C176.16 200.321 176.488 199.662 177.145 199.123C177.807 198.584 178.65 198.314 179.676 198.314C180.754 198.314 181.627 198.593 182.295 199.149C182.969 199.706 183.306 200.418 183.306 201.285H181.671C181.671 200.84 181.48 200.456 181.1 200.134C180.725 199.812 180.25 199.65 179.676 199.65C179.084 199.65 178.621 199.779 178.287 200.037C177.953 200.295 177.786 200.632 177.786 201.048C177.786 201.44 177.941 201.736 178.252 201.936C178.562 202.135 179.122 202.325 179.931 202.507C180.745 202.688 181.404 202.905 181.908 203.157C182.412 203.409 182.784 203.714 183.024 204.071C183.271 204.423 183.394 204.854 183.394 205.363C183.394 206.213 183.054 206.896 182.374 207.411C181.694 207.921 180.812 208.176 179.729 208.176C178.967 208.176 178.293 208.041 177.707 207.771C177.121 207.502 176.661 207.127 176.327 206.646C175.999 206.16 175.835 205.636 175.835 205.073H177.461C177.49 205.618 177.707 206.052 178.111 206.374C178.521 206.69 179.061 206.849 179.729 206.849C180.344 206.849 180.836 206.726 181.205 206.479C181.58 206.228 181.768 205.894 181.768 205.478ZM192.947 200.846H185.617V199.431H192.947V200.846ZM192.947 204.493H185.617V203.087H192.947V204.493ZM200.567 208H198.933V197.163L195.654 198.367V196.891L200.312 195.142H200.567V208ZM213.355 202.542C213.355 204.446 213.03 205.861 212.38 206.787C211.729 207.713 210.713 208.176 209.33 208.176C207.965 208.176 206.954 207.725 206.298 206.822C205.642 205.914 205.302 204.561 205.278 202.762V200.591C205.278 198.71 205.604 197.312 206.254 196.398C206.904 195.484 207.924 195.027 209.312 195.027C210.689 195.027 211.703 195.47 212.354 196.354C213.004 197.233 213.338 198.593 213.355 200.433V202.542ZM211.729 200.318C211.729 198.941 211.536 197.939 211.149 197.312C210.763 196.68 210.15 196.363 209.312 196.363C208.48 196.363 207.874 196.677 207.493 197.304C207.112 197.931 206.916 198.895 206.904 200.195V202.797C206.904 204.18 207.104 205.202 207.502 205.864C207.906 206.521 208.516 206.849 209.33 206.849C210.133 206.849 210.728 206.538 211.114 205.917C211.507 205.296 211.712 204.317 211.729 202.981V200.318Z" fill="black"/>
<path d="M76.3574 541.646H70.3457V552H66.9531V526.406H75.4258C78.3086 526.406 80.5234 527.062 82.0703 528.375C83.6289 529.688 84.4082 531.598 84.4082 534.105C84.4082 535.699 83.9746 537.088 83.1074 538.271C82.252 539.455 81.0566 540.34 79.5215 540.926L85.5332 551.789V552H81.9121L76.3574 541.646ZM70.3457 538.887H75.5312C77.207 538.887 78.5371 538.453 79.5215 537.586C80.5176 536.719 81.0156 535.559 81.0156 534.105C81.0156 532.523 80.541 531.311 79.5918 530.467C78.6543 529.623 77.2949 529.195 75.5137 529.184H70.3457V538.887ZM102.039 543.404H105.59V546.059H102.039V552H98.7695V546.059H87.1152V544.143L98.5762 526.406H102.039V543.404ZM90.8066 543.404H98.7695V530.854L98.3828 531.557L90.8066 543.404Z" fill="black"/>
<path d="M74.7676 571.478C74.7676 571.038 74.6006 570.698 74.2666 570.458C73.9385 570.212 73.3613 570.001 72.5352 569.825C71.7148 569.649 71.0615 569.438 70.5752 569.192C70.0947 568.946 69.7373 568.653 69.5029 568.313C69.2744 567.974 69.1602 567.569 69.1602 567.101C69.1602 566.321 69.4883 565.662 70.1445 565.123C70.8066 564.584 71.6504 564.314 72.6758 564.314C73.7539 564.314 74.627 564.593 75.2949 565.149C75.9688 565.706 76.3057 566.418 76.3057 567.285H74.6709C74.6709 566.84 74.4805 566.456 74.0996 566.134C73.7246 565.812 73.25 565.65 72.6758 565.65C72.084 565.65 71.6211 565.779 71.2871 566.037C70.9531 566.295 70.7861 566.632 70.7861 567.048C70.7861 567.44 70.9414 567.736 71.252 567.936C71.5625 568.135 72.1221 568.325 72.9307 568.507C73.7451 568.688 74.4043 568.905 74.9082 569.157C75.4121 569.409 75.7842 569.714 76.0244 570.071C76.2705 570.423 76.3936 570.854 76.3936 571.363C76.3936 572.213 76.0537 572.896 75.374 573.411C74.6943 573.921 73.8125 574.176 72.7285 574.176C71.9668 574.176 71.293 574.041 70.707 573.771C70.1211 573.502 69.6611 573.127 69.3271 572.646C68.999 572.16 68.835 571.636 68.835 571.073H70.4609C70.4902 571.618 70.707 572.052 71.1113 572.374C71.5215 572.69 72.0605 572.849 72.7285 572.849C73.3438 572.849 73.8359 572.726 74.2051 572.479C74.5801 572.228 74.7676 571.894 74.7676 571.478ZM85.9473 566.846H78.6172V565.431H85.9473V566.846ZM85.9473 570.493H78.6172V569.087H85.9473V570.493ZM93.5674 574H91.9326V563.163L88.6543 564.367V562.891L93.3125 561.142H93.5674V574ZM99.0781 567.584L99.7285 561.203H106.285V562.706H101.108L100.722 566.195C101.349 565.826 102.061 565.642 102.857 565.642C104.023 565.642 104.949 566.028 105.635 566.802C106.32 567.569 106.663 568.609 106.663 569.922C106.663 571.24 106.306 572.28 105.591 573.042C104.882 573.798 103.889 574.176 102.611 574.176C101.48 574.176 100.558 573.862 99.8428 573.235C99.1279 572.608 98.7207 571.741 98.6211 570.634H100.159C100.259 571.366 100.52 571.92 100.941 572.295C101.363 572.664 101.92 572.849 102.611 572.849C103.367 572.849 103.959 572.591 104.387 572.075C104.82 571.56 105.037 570.848 105.037 569.939C105.037 569.084 104.803 568.398 104.334 567.883C103.871 567.361 103.253 567.101 102.479 567.101C101.771 567.101 101.214 567.256 100.81 567.566L100.379 567.918L99.0781 567.584Z" fill="black"/>
<path d="M183.357 366.646H177.346V377H173.953V351.406H182.426C185.309 351.406 187.523 352.062 189.07 353.375C190.629 354.688 191.408 356.598 191.408 359.105C191.408 360.699 190.975 362.088 190.107 363.271C189.252 364.455 188.057 365.34 186.521 365.926L192.533 376.789V377H188.912L183.357 366.646ZM177.346 363.887H182.531C184.207 363.887 185.537 363.453 186.521 362.586C187.518 361.719 188.016 360.559 188.016 359.105C188.016 357.523 187.541 356.311 186.592 355.467C185.654 354.623 184.295 354.195 182.514 354.184H177.346V363.887ZM200.039 362.621H202.482C204.018 362.598 205.225 362.193 206.104 361.408C206.982 360.623 207.422 359.562 207.422 358.227C207.422 355.227 205.928 353.727 202.939 353.727C201.533 353.727 200.408 354.131 199.564 354.939C198.732 355.736 198.316 356.797 198.316 358.121H195.064C195.064 356.094 195.803 354.412 197.279 353.076C198.768 351.729 200.654 351.055 202.939 351.055C205.354 351.055 207.246 351.693 208.617 352.971C209.988 354.248 210.674 356.023 210.674 358.297C210.674 359.41 210.311 360.488 209.584 361.531C208.869 362.574 207.891 363.354 206.648 363.869C208.055 364.314 209.139 365.053 209.9 366.084C210.674 367.115 211.061 368.375 211.061 369.863C211.061 372.16 210.311 373.982 208.811 375.33C207.311 376.678 205.359 377.352 202.957 377.352C200.555 377.352 198.598 376.701 197.086 375.4C195.586 374.1 194.836 372.383 194.836 370.25H198.105C198.105 371.598 198.545 372.676 199.424 373.484C200.303 374.293 201.48 374.697 202.957 374.697C204.527 374.697 205.729 374.287 206.561 373.467C207.393 372.646 207.809 371.469 207.809 369.934C207.809 368.445 207.352 367.303 206.438 366.506C205.523 365.709 204.205 365.299 202.482 365.275H200.039V362.621Z" fill="black"/>
<path d="M181.768 396.478C181.768 396.038 181.601 395.698 181.267 395.458C180.938 395.212 180.361 395.001 179.535 394.825C178.715 394.649 178.062 394.438 177.575 394.192C177.095 393.946 176.737 393.653 176.503 393.313C176.274 392.974 176.16 392.569 176.16 392.101C176.16 391.321 176.488 390.662 177.145 390.123C177.807 389.584 178.65 389.314 179.676 389.314C180.754 389.314 181.627 389.593 182.295 390.149C182.969 390.706 183.306 391.418 183.306 392.285H181.671C181.671 391.84 181.48 391.456 181.1 391.134C180.725 390.812 180.25 390.65 179.676 390.65C179.084 390.65 178.621 390.779 178.287 391.037C177.953 391.295 177.786 391.632 177.786 392.048C177.786 392.44 177.941 392.736 178.252 392.936C178.562 393.135 179.122 393.325 179.931 393.507C180.745 393.688 181.404 393.905 181.908 394.157C182.412 394.409 182.784 394.714 183.024 395.071C183.271 395.423 183.394 395.854 183.394 396.363C183.394 397.213 183.054 397.896 182.374 398.411C181.694 398.921 180.812 399.176 179.729 399.176C178.967 399.176 178.293 399.041 177.707 398.771C177.121 398.502 176.661 398.127 176.327 397.646C175.999 397.16 175.835 396.636 175.835 396.073H177.461C177.49 396.618 177.707 397.052 178.111 397.374C178.521 397.69 179.061 397.849 179.729 397.849C180.344 397.849 180.836 397.726 181.205 397.479C181.58 397.228 181.768 396.894 181.768 396.478ZM192.947 391.846H185.617V390.431H192.947V391.846ZM192.947 395.493H185.617V394.087H192.947V395.493ZM200.567 399H198.933V388.163L195.654 389.367V387.891L200.312 386.142H200.567V399ZM213.355 393.542C213.355 395.446 213.03 396.861 212.38 397.787C211.729 398.713 210.713 399.176 209.33 399.176C207.965 399.176 206.954 398.725 206.298 397.822C205.642 396.914 205.302 395.561 205.278 393.762V391.591C205.278 389.71 205.604 388.312 206.254 387.398C206.904 386.484 207.924 386.027 209.312 386.027C210.689 386.027 211.703 386.47 212.354 387.354C213.004 388.233 213.338 389.593 213.355 391.433V393.542ZM211.729 391.318C211.729 389.941 211.536 388.939 211.149 388.312C210.763 387.68 210.15 387.363 209.312 387.363C208.48 387.363 207.874 387.677 207.493 388.304C207.112 388.931 206.916 389.895 206.904 391.195V393.797C206.904 395.18 207.104 396.202 207.502 396.864C207.906 397.521 208.516 397.849 209.33 397.849C210.133 397.849 210.728 397.538 211.114 396.917C211.507 396.296 211.712 395.317 211.729 393.981V391.318Z" fill="black"/>
</svg>
